<svg xmlns="http://www.w3.org/2000/svg" width="300" height="200"><g fill="none" fill-rule="nonzero"><path fill="#CDD3D9" d="M249.042 78.312c-3.492-8.61-6.8-14.865-6.836-14.926-.18-.34-.535-.553-.92-.553s-.738.213-.92.553c-.03.06-3.34 6.316-6.836 14.926-3.232 7.966-7.29 19.65-8.28 30.07-1.324 13.907 2.347 21.182 5.663 24.828 2.803 3.087 6.487 4.788 10.373 4.788 3.886 0 7.57-1.7 10.374-4.788 3.312-3.65 6.984-10.912 5.664-24.827-.987-10.424-5.05-22.105-8.282-30.07zm5.446 44.734c-.9 3.607-2.373 6.556-4.372 8.76-2.403 2.65-5.543 4.11-8.836 4.11s-6.43-1.458-8.836-4.11c-2.002-2.204-3.473-5.15-4.373-8.76-1.024-4.105-1.28-8.97-.755-14.464 1.57-16.435 10.98-36.383 13.974-42.413 3 6.026 12.4 25.993 13.964 42.41.522 5.493.266 10.36-.756 14.463l-.01.003z"/><path fill="#CDD3D9" d="M241.498 115.132c-.575 0-1.04.467-1.04 1.043v34.66c0 .576.465 1.043 1.04 1.043s1.04-.467 1.04-1.043v-34.66c0-.576-.465-1.043-1.04-1.043zM72.147 40.424l-11.335-.022c-.602-.004-1.13.402-1.28.985l-8.81 33.86c1.053.366 1.652.322 2.735-.076l8.377-32.124H72.14l.007-2.622zM210.653 41.676c-.15-.586-.678-.995-1.28-.992L81.314 40.44v2.638l127.03.24 8.26 32.21c.31.024.605.15.837.358.682.058 1.36.157 2.047.276l-8.837-34.486z"/><path fill="#CDD3D9" d="M81.347 31.772l-9.184-.016c-.35 0-.685.137-.932.384s-.386.582-.387.932l-.03 15.343c0 .35.138.686.384.934.247.247.58.387.93.387l9.188.02c.35 0 .685-.138.932-.384.248-.247.388-.582.388-.932L82.66 33.1c.003-.35-.135-.687-.38-.936-.248-.25-.583-.39-.933-.39zm-1.345 15.34h-6.55l.02-12.73h6.552l-.022 12.73zM39.306 108.733c-.265-.513-.896-.714-1.408-.448-.512.266-.712.897-.447 1.41l3.397 6.68c.172.33.507.546.88.563.373.017.726-.167.927-.482.2-.314.22-.713.048-1.045l-3.396-6.677zM37.746 115.132c-.266-.513-.896-.714-1.408-.448-.512.266-.712.898-.447 1.41l4.957 9.75c.265.513.896.714 1.408.448.512-.266.712-.897.447-1.41l-4.956-9.75z"/><path fill="#CDD3D9" d="M45.646 108.277c-.512-.26-1.14-.057-1.4.456l-3.396 6.678c-.17.333-.153.732.048 1.046.2.315.554.5.927.482.373-.017.708-.232.88-.564l3.396-6.68c.13-.247.157-.537.07-.803-.085-.266-.274-.487-.524-.613zM47.206 114.676c-.512-.26-1.14-.057-1.4.456l-4.96 9.75c-.264.513-.064 1.144.448 1.41s1.143.065 1.408-.448l4.975-9.765c.124-.25.144-.537.056-.8-.088-.264-.278-.48-.527-.604z"/><path fill="#CDD3D9" d="M51.602 126.46c-.62 1.823-1.594 3.504-2.864 4.95-1.897 2.088-4.367 3.237-6.962 3.237-2.595 0-5.065-1.15-6.96-3.238-1.603-1.75-2.757-4.093-3.474-6.965-.82-3.28-1.022-7.176-.606-11.576C31.96 100 39.188 84.41 41.773 79.17c2.124 4.304 7.368 15.588 9.864 26.61v-7.84c-1.11-3.513-2.34-6.796-3.45-9.53-2.816-6.942-5.485-11.983-5.51-12.035-.18-.34-.535-.553-.92-.553s-.74.213-.92.553c-.025.052-2.694 5.093-5.51 12.035-2.608 6.418-5.882 15.85-6.683 24.262-1.07 11.267 1.923 17.17 4.61 20.138 2.294 2.528 5.315 3.92 8.503 3.92 3.187 0 6.205-1.392 8.502-3.92.48-.534.92-1.1 1.316-1.698l.026-4.653zM103.863 81.393c.018-.225.102-.44.24-.62.276-.34.576-.662.897-.962l-54.218-.102v-1.97l58.255.112c.13-.073.272-.124.42-.15.076-.29.248-.543.486-.723.64-.523 1.166-1.21 1.77-1.762l-62.242-.118c-.348 0-.683.137-.93.384-.248.248-.388.583-.39.933v4.592c0 .35.138.686.385.934.246.247.58.386.93.387l54.324.103c-.138-.34-.11-.72.073-1.037zM220.597 75.424l-61.888-.12c.995.85 1.85 1.757 2.71 2.646l57.854.11v1.953l-55.228-.106c.703.356 1.356.803 1.942 1.33.412.302.6.825.474 1.32l54.122.104c.35.002.685-.136.932-.383.248-.247.387-.582.388-.932v-4.592c.003-.35-.133-.687-.38-.936-.244-.25-.578-.39-.927-.393zM83.452 27.183l-13.375-.026c-.35 0-.684.138-.932.384-.247.248-.387.583-.388.933v4.596c0 .348.137.684.384.932s.58.388.93.39l13.376.025c.35 0 .684-.138.932-.385.247-.246.387-.58.388-.93v-4.597c0-.35-.137-.686-.384-.933-.246-.248-.58-.388-.93-.39zm-1.326 4.592l-10.742-.022v-1.955l10.742.02V31.775zM89.414 91.185l-17.822-.036c-.35-.002-.684.137-.932.383-.247.247-.387.582-.388.932l-.05 26.78c-.002.35.136.687.383.935.246.248.58.388.93.388l17.822.036c.35 0 .684-.138.932-.384.246-.247.386-.582.387-.932l.05-26.78c.002-.35-.136-.687-.383-.935-.246-.248-.58-.388-.93-.388zm-1.37 26.787l-15.19-.03.045-24.14 15.188.03-.045 24.14z"/><path fill="#FFF" d="M67.773 123.185l.01-4.584 25.342.05-.01 4.583z"/><path fill="#CDD3D9" d="M93.102 117.324l-25.31-.048c-.348 0-.684.137-.93.384-.25.246-.388.582-.39.93v4.597c0 .35.138.686.384.934.247.25.58.388.93.39l25.31.047c.348 0 .684-.137.93-.384.25-.246.388-.582.39-.93v-4.597c0-.35-.138-.686-.384-.934-.247-.248-.58-.387-.93-.388zm-1.327 4.592l-22.665-.04v-1.956l22.665.042v1.954z"/><path fill="#CDD3D9" d="M80.502 91.865c-.35 0-.685.137-.932.384-.248.246-.387.58-.388.93l-.048 25.12c0 .728.59 1.318 1.316 1.318.728 0 1.317-.59 1.317-1.32l.048-25.117c-.002-.725-.59-1.313-1.313-1.315z"/><path fill="#CDD3D9" d="M88.802 104.442l-16.864-.032c-.727 0-1.316.59-1.316 1.32 0 .727.59 1.318 1.316 1.318l16.864.032c.728 0 1.317-.59 1.317-1.32 0-.728-.59-1.318-1.318-1.318zM167.045 80.148l-31.23-21.698c-.45-.31-1.045-.31-1.495 0l-31.31 21.573c-.475.327-.683.926-.513 1.478.17.553.68.93 1.257.93h6.965c-.047-.568.204-1.12.662-1.457.544-.366 1.066-.764 1.576-1.178h-4.975l27.08-18.658 27.01 18.76h-4.453c.863.56 1.653 1.227 2.35 1.984.167.19.287.418.35.662h5.972c.57-.004 1.074-.377 1.246-.922.172-.546-.027-1.14-.493-1.472z"/><path fill="#CDD3D9" d="M110.318 137.16l-57.422-.11.106-55.894c-.125.006-.25-.002-.372-.023-.84-.168-1.62-.558-2.26-1.13l-.11 58.357c-.002.35.136.686.383.934.246.248.58.388.93.39l58.74.11.005-2.634zM217.047 81.024l-.105 56.338-57.422-.11v2.64l58.738.11c.35.002.685-.136.932-.383.248-.247.388-.583.388-.932l.11-57.94c-.868.19-1.753.283-2.64.276zM143.918 91.3l-17.822-.035c-.35 0-.684.137-.932.384-.248.246-.387.58-.388.93l-.05 26.782c-.002.35.136.685.382.933.247.248.58.388.93.39l17.822.025c.35 0 .685-.138.932-.384.248-.247.387-.582.388-.932l.05-26.78c-.002-.726-.59-1.312-1.312-1.314zm-1.368 26.778l-15.19-.03.046-24.14 15.19.03-.046 24.14z"/><path fill="#FFF" d="M122.276 123.288l.01-4.584 25.342.05-.01 4.583z"/><path fill="#CDD3D9" d="M147.605 117.427l-25.31-.05c-.348 0-.683.14-.93.385-.248.247-.388.582-.388.932v4.596c0 .35.137.685.383.933s.58.388.93.39l25.31.047c.348 0 .683-.137.93-.384.248-.247.388-.582.39-.932v-4.595c0-.35-.138-.687-.385-.935-.246-.248-.58-.388-.93-.388zm-1.326 4.592l-22.676-.043v-1.954l22.68.045v1.954l-.005-.003z"/><path fill="#CDD3D9" d="M135.005 91.968c-.35 0-.684.137-.932.384-.247.246-.387.582-.388.93l-.048 25.12c0 .73.59 1.32 1.317 1.32s1.317-.59 1.317-1.32l.05-25.12c-.003-.724-.59-1.313-1.315-1.314z"/><path fill="#CDD3D9" d="M143.306 104.545l-16.864-.032c-.727 0-1.317.59-1.317 1.32 0 .727.59 1.318 1.317 1.318l16.864.033c.727 0 1.317-.59 1.317-1.32 0-.728-.59-1.318-1.317-1.318zM198.42 91.403l-17.82-.035c-.35 0-.685.137-.932.384-.248.246-.387.582-.388.93l-.052 26.782c0 .35.138.686.384.934s.58.388.93.39l17.822.034c.35 0 .684-.137.932-.384.247-.247.387-.582.388-.932l.05-26.78c.002-.35-.136-.687-.382-.935-.247-.247-.58-.386-.93-.387zm-1.366 26.778l-15.19-.038.046-24.13 15.188.03-.044 24.14z"/><path fill="#FFF" d="M176.778 123.394l.01-4.584 25.342.05-.01 4.583z"/><path fill="#CDD3D9" d="M202.11 117.532l-25.31-.048c-.712.01-1.287.587-1.297 1.3v4.596c0 .35.137.685.383.933s.58.388.93.39l25.31.047c.348 0 .683-.137.93-.384.248-.247.388-.582.39-.932v-4.595c-.005-.352-.147-.688-.398-.933-.25-.245-.59-.38-.94-.375zm-1.327 4.593l-22.666-.042v-1.954l22.666.04v1.955z"/><path fill="#CDD3D9" d="M189.51 92.074c-.35 0-.685.137-.933.384-.248.246-.387.582-.388.93l-.05 25.12c0 .728.59 1.32 1.318 1.32.727 0 1.316-.592 1.316-1.32l.048-25.12c0-.725-.588-1.313-1.313-1.314z"/><path fill="#CDD3D9" d="M197.813 104.663l-16.864-.032c-.728 0-1.318.592-1.318 1.32 0 .73.59 1.32 1.317 1.32l16.863.03c.727 0 1.317-.59 1.317-1.318 0-.728-.59-1.32-1.317-1.32zM111.62 145.947l.13-63.357 23.313-15.725 23.252 15.8-.118 63.205 2.633.054.122-63.956c0-.438-.215-.848-.577-1.095l-24.57-16.688c-.444-.3-1.027-.3-1.472 0l-24.633 16.6c-.363.243-.582.652-.583 1.09l-.122 64.123 2.624-.05z"/><path fill="#CDD3D9" d="M256.94 153.02c-12.175-2.55-29.526-4.69-50.19-6.178-21.262-1.534-45.587-2.346-70.345-2.346-24.757 0-49.003.81-70.23 2.34-20.63 1.486-37.98 3.614-50.166 6.158-.425.073-.776.372-.915.78-.14.408-.046.86.245 1.177.29.32.732.452 1.15.35 12.087-2.524 29.326-4.64 49.855-6.115 21.18-1.518 45.405-2.333 70.073-2.333 49.115 0 95.116 3.248 120.05 8.472.618.092 1.2-.316 1.324-.93.126-.61-.25-1.215-.853-1.374z"/><path fill="#CDD3D9" d="M50.657 149.317l.02-9.612 59.638.112v-2.638l-60.953-.103c-.35 0-.684.137-.932.384-.247.247-.387.583-.388.932l-.022 11.197 2.637-.273zM219.143 149.03l2.633.248.02-10.568c0-.35-.138-.686-.384-.933-.246-.248-.58-.388-.93-.39l-60.966-.115v2.638l59.65.113-.023 9.008z"/><path fill="#CDD4DA" d="M42.81 150.13v-47.527c0-.576-.465-1.043-1.04-1.043s-1.042.467-1.042 1.043v47.763l2.083-.237z"/></g></svg>